<mxfile host="app.diagrams.net" agent="Mozilla/5.0 (Windows NT 10.0; Win64; x64) AppleWebKit/537.36 (KHTML, like Gecko) Chrome/139.0.0.0 Safari/537.36" version="28.1.1">
  <diagram name="PÃ¡gina-1" id="5Pd7oQlptnebJxsUReH4">
    <mxGraphModel grid="0" page="0" gridSize="10" guides="1" tooltips="1" connect="1" arrows="1" fold="1" pageScale="1" pageWidth="850" pageHeight="1100" math="0" shadow="0">
      <root>
        <mxCell id="0" />
        <mxCell id="1" parent="0" />
        <mxCell id="YZuZ_s3wCYC8nCBKC0Eq-5" value="Diagrama de Casos de Uso (Modelo de Requerimientos)" style="shape=umlFrame;whiteSpace=wrap;html=1;pointerEvents=0;recursiveResize=0;container=1;collapsible=0;width=330;height=30;fillColor=#bac8d3;strokeColor=#23445d;" vertex="1" parent="1">
          <mxGeometry y="150" width="350" height="230" as="geometry" />
        </mxCell>
        <mxCell id="YZuZ_s3wCYC8nCBKC0Eq-9" style="edgeStyle=orthogonalEdgeStyle;rounded=0;orthogonalLoop=1;jettySize=auto;html=1;strokeWidth=1;endArrow=none;endFill=0;exitX=0.5;exitY=0.5;exitDx=0;exitDy=0;exitPerimeter=0;" edge="1" parent="YZuZ_s3wCYC8nCBKC0Eq-5" source="YZuZ_s3wCYC8nCBKC0Eq-6" target="YZuZ_s3wCYC8nCBKC0Eq-8">
          <mxGeometry relative="1" as="geometry" />
        </mxCell>
        <mxCell id="YZuZ_s3wCYC8nCBKC0Eq-6" value="Usuario" style="shape=umlActor;verticalLabelPosition=bottom;verticalAlign=top;html=1;fillColor=#fff2cc;strokeColor=#d6b656;" vertex="1" parent="YZuZ_s3wCYC8nCBKC0Eq-5">
          <mxGeometry x="50" y="80" width="30" height="60" as="geometry" />
        </mxCell>
        <mxCell id="YZuZ_s3wCYC8nCBKC0Eq-8" value="&lt;div&gt;Solicitar Evento&lt;/div&gt;" style="ellipse;whiteSpace=wrap;html=1;fillColor=#fff2cc;strokeColor=#d6b656;" vertex="1" parent="YZuZ_s3wCYC8nCBKC0Eq-5">
          <mxGeometry x="170" y="70" width="120" height="80" as="geometry" />
        </mxCell>
        <mxCell id="YZuZ_s3wCYC8nCBKC0Eq-10" value="Diagrama de Clases (Modelo Estructural)" style="shape=umlFrame;whiteSpace=wrap;html=1;pointerEvents=0;recursiveResize=0;container=1;collapsible=0;width=270;height=30;fillColor=#bac8d3;strokeColor=#23445d;" vertex="1" parent="1">
          <mxGeometry x="475" y="125" width="340" height="230" as="geometry" />
        </mxCell>
        <mxCell id="YZuZ_s3wCYC8nCBKC0Eq-14" value="Usuario" style="swimlane;fontStyle=1;align=center;verticalAlign=top;childLayout=stackLayout;horizontal=1;startSize=32;horizontalStack=0;resizeParent=1;resizeParentMax=0;resizeLast=0;collapsible=0;marginBottom=0;fillColor=#fff2cc;strokeColor=#d6b656;" vertex="1" parent="YZuZ_s3wCYC8nCBKC0Eq-10">
          <mxGeometry x="55" y="47" width="225" height="136" as="geometry" />
        </mxCell>
        <mxCell id="YZuZ_s3wCYC8nCBKC0Eq-15" value="..." style="text;strokeColor=none;fillColor=none;align=left;verticalAlign=top;spacingLeft=4;spacingRight=4;overflow=hidden;rotatable=0;points=[[0,0.5],[1,0.5]];portConstraint=eastwest;" vertex="1" parent="YZuZ_s3wCYC8nCBKC0Eq-14">
          <mxGeometry y="32" width="225" height="32" as="geometry" />
        </mxCell>
        <mxCell id="YZuZ_s3wCYC8nCBKC0Eq-17" style="line;strokeWidth=1;fillColor=none;align=left;verticalAlign=middle;spacingTop=-1;spacingLeft=3;spacingRight=3;rotatable=0;labelPosition=right;points=[];portConstraint=eastwest;strokeColor=inherit;" vertex="1" parent="YZuZ_s3wCYC8nCBKC0Eq-14">
          <mxGeometry y="64" width="225" height="8" as="geometry" />
        </mxCell>
        <mxCell id="YZuZ_s3wCYC8nCBKC0Eq-18" value="+solicitarEvento()" style="text;strokeColor=none;fillColor=none;align=left;verticalAlign=top;spacingLeft=4;spacingRight=4;overflow=hidden;rotatable=0;points=[[0,0.5],[1,0.5]];portConstraint=eastwest;" vertex="1" parent="YZuZ_s3wCYC8nCBKC0Eq-14">
          <mxGeometry y="72" width="225" height="32" as="geometry" />
        </mxCell>
        <mxCell id="YZuZ_s3wCYC8nCBKC0Eq-20" value="..." style="text;strokeColor=none;fillColor=none;align=left;verticalAlign=top;spacingLeft=4;spacingRight=4;overflow=hidden;rotatable=0;points=[[0,0.5],[1,0.5]];portConstraint=eastwest;" vertex="1" parent="YZuZ_s3wCYC8nCBKC0Eq-14">
          <mxGeometry y="104" width="225" height="32" as="geometry" />
        </mxCell>
        <mxCell id="YZuZ_s3wCYC8nCBKC0Eq-27" value="" style="endArrow=block;startArrow=none;endFill=0;startFill=0;endSize=8;html=1;verticalAlign=bottom;dashed=1;labelBackgroundColor=none;rounded=0;" edge="1" parent="1" source="YZuZ_s3wCYC8nCBKC0Eq-8" target="YZuZ_s3wCYC8nCBKC0Eq-18">
          <mxGeometry width="160" relative="1" as="geometry">
            <mxPoint x="400" y="260" as="sourcePoint" />
            <mxPoint x="560" y="260" as="targetPoint" />
          </mxGeometry>
        </mxCell>
        <mxCell id="YZuZ_s3wCYC8nCBKC0Eq-28" value="&lt;span style=&quot;caret-color: rgba(0, 0, 0, 0);&quot;&gt;&amp;lt;&amp;lt;corresponde a&amp;gt;&amp;gt;&amp;nbsp;&lt;/span&gt;" style="edgeLabel;html=1;align=center;verticalAlign=middle;resizable=0;points=[];labelBackgroundColor=none;" connectable="0" vertex="1" parent="YZuZ_s3wCYC8nCBKC0Eq-27">
          <mxGeometry x="-0.075" y="-1" relative="1" as="geometry">
            <mxPoint x="12" y="-13" as="offset" />
          </mxGeometry>
        </mxCell>
      </root>
    </mxGraphModel>
  </diagram>
</mxfile>
